<?xml version="1.0" encoding="UTF-8" standalone="no"?>
<!-- Created with Inkscape (http://www.inkscape.org/) -->

<svg
   sodipodi:docname="Title Text.svg"
   id="svg5"
   version="1.1"
   viewBox="0 0 89 23"
   height="23mm"
   width="89mm"
   inkscape:version="1.1.1 (3bf5ae0d25, 2021-09-20)"
   xmlns:inkscape="http://www.inkscape.org/namespaces/inkscape"
   xmlns:sodipodi="http://sodipodi.sourceforge.net/DTD/sodipodi-0.dtd"
   xmlns="http://www.w3.org/2000/svg"
   xmlns:svg="http://www.w3.org/2000/svg">
  <sodipodi:namedview
     id="namedview7"
     pagecolor="#ffffff"
     bordercolor="#666666"
     borderopacity="1.0"
     inkscape:pageshadow="2"
     inkscape:pageopacity="0.0"
     inkscape:pagecheckerboard="0"
     inkscape:document-units="mm"
     showgrid="false"
     inkscape:zoom="8"
     inkscape:cx="125.625"
     inkscape:cy="-107.625"
     inkscape:window-width="2560"
     inkscape:window-height="1506"
     inkscape:window-x="-11"
     inkscape:window-y="-11"
     inkscape:window-maximized="1"
     inkscape:current-layer="text2432"
     units="mm"
     width="219mm" />
  <defs
     id="defs2">
    <rect
       x="197.88334"
       y="32.842563"
       width="60.993331"
       height="70.652908"
       id="rect82864" />
    <rect
       x="176.0803"
       y="-62.373271"
       width="111.77511"
       height="57.1295"
       id="rect72952" />
    <rect
       x="110.11918"
       y="-58.50944"
       width="295.85905"
       height="108.46325"
       id="rect44492" />
  </defs>
  <g
     inkscape:label="Layer 1"
     inkscape:groupmode="layer"
     id="layer1">
    <g
       aria-label="Caleb Wiebolt"
       id="text2432"
       style="font-size:21.1667px;line-height:1.25;letter-spacing:0.0582083px;stroke-width:0.264583;fill:#3a2d1c;fill-opacity:1">
      <path
         d="m 9.1536523,19.535428 q -1.37583,0 -2.2747057,-0.807154 -0.8621868,-0.807153 -0.8621868,-2.036228 0,-1.265764 0.6603984,-2.513183 0.6603985,-1.247419 1.7243737,-2.238017 0.5319876,-0.495299 1.1556972,-0.898875 0.6237099,-0.421922 1.3391409,-0.733776 0.752121,-0.3485441 1.467552,-0.4952993 0.733776,-0.1650996 1.37583,-0.1650996 1.174042,0 1.944507,0.4586099 0.421921,-0.9905975 0.807153,-0.9905975 0.62371,0 0.62371,0.2384772 -0.440266,0.5686764 -0.715432,0.9172203 -0.275166,0.348543 -0.366888,0.495299 -1.082319,1.467552 -1.082319,2.146294 l 0.07338,0.275166 q 0,0.03669 -0.03669,0.03669 -0.220133,0 -0.220133,-0.476954 0,-0.825498 0.733776,-2.311395 -0.568677,-0.5136429 -1.595963,-0.5136429 -1.577618,0 -3.21027,1.0089419 -1.6326517,0.990598 -2.7333157,2.531527 -0.550332,0.752121 -0.8071536,1.467552 -0.2384773,0.697088 -0.2384773,1.339142 0,0.807153 0.3668881,1.449207 0.366888,0.642054 1.008942,0.990598 0.642054,0.366888 1.4492076,0.366888 1.2841079,0 2.4398049,-0.513643 1.174042,-0.531988 2.201328,-1.614307 0.256822,-0.256822 0.366888,-0.256822 0.07338,0 0.07338,0.110066 0,0.1651 -0.1651,0.348544 -0.972253,1.100664 -2.549871,1.742718 -1.595963,0.642054 -2.9534487,0.642054 z"
         style="font-size:18.3444px;font-family:Qwigley;-inkscape-font-specification:Qwigley;fill:#3a2d1c;fill-opacity:1"
         id="path61500" />
      <path
         d="m 16.127674,18.838341 q -0.366888,0 -0.678743,-0.330199 -0.293511,-0.348544 -0.293511,-0.880532 0,-0.531987 0.642054,-1.650996 0.642054,-1.100664 1.577619,-1.981195 0.91722,-0.862187 1.577618,-0.862187 h 0.183444 q 0.678743,0 1.155697,0.275166 0.476955,0.256822 0.476955,0.697087 0,0.201789 -0.1651,0.201789 -0.05503,0 -0.05503,-0.05503 -0.29351,-0.678743 -0.898876,-0.678743 -1.04563,0 -2.384772,1.724373 -1.339141,1.687685 -1.339141,2.604905 0,0.348544 0.183444,0.348544 0.825498,0 3.467092,-3.723913 0,0 0,0 v 0 q -0.01835,0.01834 0.01834,0 0.05503,-0.03669 0.09172,-0.03669 0.09172,0 0.385233,0.183444 0.29351,0.165099 0.29351,0.29351 0,0 -0.07338,0.128411 -0.07338,0.110066 -0.183444,0.348544 -0.29351,0.623709 -0.45861,1.229074 -0.146755,0.587021 -0.146755,1.027287 0,0.972253 0.476955,0.972253 l 0.183444,-0.03669 0.03669,0.01835 q 0,0.165099 -0.45861,0.165099 -0.440265,0 -0.733776,-0.403576 -0.275166,-0.421922 -0.275166,-1.119009 0,-0.678743 0.238478,-1.504241 -0.01835,0.05503 -0.128411,0.201789 -0.110067,0.146755 -0.348544,0.513643 -1.504241,2.329739 -2.366427,2.329739 z"
         style="font-size:18.3444px;font-family:Qwigley;-inkscape-font-specification:Qwigley;fill:#3a2d1c;fill-opacity:1"
         id="path61502" />
      <path
         d="m 22.367893,18.856685 q -0.880531,0 -0.880531,-1.467552 0,-0.935564 0.587021,-3.081859 0.58702,-2.164639 1.485896,-3.980735 0.91722,-1.8527845 1.614307,-1.8527845 0.403577,0 0.807154,0.275166 0.403577,0.2568216 0.403577,0.5686764 0,1.3207971 -3.889013,5.8702081 -0.146755,0.678743 -0.238477,1.265764 -0.07338,0.587021 -0.07338,1.100664 0,1.008942 0.440266,1.008942 l 0.29351,-0.09172 q 0.09172,0 0.09172,0.09172 0,0.29351 -0.642054,0.29351 z m 0.256822,-4.145834 q 3.320336,-4.329279 3.320336,-5.4482873 0,-0.2201328 -0.128411,-0.2201328 -0.550332,0 -1.595962,1.9628511 -1.045631,1.962851 -1.595963,3.705569 z"
         style="font-size:18.3444px;font-family:Qwigley;-inkscape-font-specification:Qwigley;fill:#3a2d1c;fill-opacity:1"
         id="path61504" />
      <path
         d="m 25.269441,18.893374 q -1.559274,0 -1.559274,-1.449208 0,-1.119008 1.100664,-2.714971 1.137353,-1.595963 2.16464,-1.595963 0.440265,0 0.770465,0.293511 0.348543,0.275166 0.348543,0.678742 0,0.678743 -0.862187,1.37583 -0.843842,0.678743 -1.66934,0.678743 -0.1651,0 -0.1651,-0.07338 l 0.05503,-0.09172 q 2.109607,-0.660399 2.109607,-2.16464 0,-0.220132 -0.146756,-0.220132 -0.201788,0 -0.733776,0.421921 -0.45861,0.366888 -0.862187,0.843842 -0.385232,0.476955 -0.697087,0.990598 -0.660398,1.119008 -0.660398,1.871129 0,0.733776 0.568676,0.733776 0.660399,0 1.449208,-0.678743 0.256821,-0.238477 0.550332,-0.531988 0.29351,-0.311854 0.642054,-0.678743 0.678743,-0.733776 0.715432,-0.733776 0.110066,0 0.110066,0.09172 0,0.07338 -0.03669,0.146756 -1.926162,2.806693 -3.191926,2.806693 z"
         style="font-size:18.3444px;font-family:Qwigley;-inkscape-font-specification:Qwigley;fill:#3a2d1c;fill-opacity:1"
         id="path61506" />
      <path
         d="m 29.069872,19.315295 q -0.898875,0 -1.467552,-0.898875 -0.05503,-0.09172 0,-0.146756 0.587021,0.421922 1.119009,0.421922 1.229074,0 2.29305,-1.485897 1.100664,-1.522585 1.100664,-2.971793 0,-0.568676 -0.385233,-0.568676 -0.807153,0 -1.871129,1.614307 -1.082319,1.614307 -1.082319,2.531527 0,0.1651 0.128411,0.440266 0,0.09172 -0.146756,0.05503 -0.12841,-0.03669 -0.256821,-0.220133 -0.128411,-0.201788 -0.128411,-0.531987 0,-0.476955 0.201788,-1.284108 0.220133,-0.807154 0.678743,-1.871129 l 1.339141,-3.081859 q 0.421922,-1.137353 0.421922,-1.5959633 0,-0.3852324 -0.3302,-0.3852324 l -0.642054,0.1284108 q -0.12841,0 -0.12841,-0.1100664 0,-0.275166 0.678742,-0.275166 0.697088,0 1.063976,0.2384772 0.385232,0.2384772 0.385232,0.6787428 0,0.4219213 -0.715432,1.8344403 l -0.953908,1.871129 q 0.568676,-0.403577 1.339141,-0.403577 1.265764,0 1.265764,1.229075 0,1.412518 -1.357486,3.100203 -1.357486,1.687685 -2.549872,1.687685 z"
         style="font-size:18.3444px;font-family:Qwigley;-inkscape-font-specification:Qwigley;fill:#3a2d1c;fill-opacity:1"
         id="path61508" />
      <path
         d="m 41.238559,9.2935706 q 1.333502,0 1.333502,1.1853354 0,0.232834 -0.0635,0.508001 -0.0635,0.254 -0.275167,0.677334 -0.1905,0.423334 -0.381,0.804335 -0.190501,0.359834 -0.592668,1.058335 -0.402167,0.698501 -0.740834,1.248835 -0.317501,0.550334 -0.952502,1.608669 -0.613834,1.058335 -1.100668,1.883837 0.994834,-0.973669 2.43417,-1.98967 1.439336,-1.016002 2.370671,-1.016002 0.275167,0 0.465667,0.0635 0.1905,0.0635 0.296334,0.254001 0.105833,0.1905 0.127,0.232833 0.02117,0.04233 0.08467,0.275167 0.105833,0.402168 0.232833,0.973669 0.127001,0.550334 0.211667,0.846668 0.08467,0.296333 0.211667,0.613834 0.148167,0.296334 0.381001,0.423334 0.232834,0.127 0.592668,0.127 0.889001,0 1.545169,-0.592667 0.677334,-0.592668 0.994835,-1.439336 0.338667,-0.867835 0.486834,-1.587503 0.148167,-0.719667 0.148167,-1.206502 0,-0.656167 -0.148167,-1.397002 -0.148167,-0.740834 -0.486834,-1.545169 -0.338667,-0.804334 -1.016002,-1.333502 -0.677334,-0.5291675 -1.587502,-0.5291675 -0.762002,0 -1.227669,0.2963338 -0.148167,0.084667 -0.275167,0.084667 -0.169334,0 -0.169334,-0.1058335 -0.04233,-0.1058335 0.190501,-0.211667 0.635001,-0.2751671 1.524002,-0.2751671 1.121835,0 1.92617,0.4445007 0.825501,0.4445008 1.227668,1.1641688 0.423334,0.719668 0.592668,1.481669 0.1905,0.740834 0.1905,1.545169 0,1.291169 -0.423334,2.476504 -0.402167,1.185335 -1.375835,2.074336 -0.973668,0.867835 -2.349504,0.867835 -0.465667,0 -0.825501,-0.08467 -0.359834,-0.08467 -0.613835,-0.338667 -0.254,-0.232834 -0.402167,-0.402167 -0.148167,-0.169334 -0.275167,-0.635001 -0.127,-0.465668 -0.169334,-0.656168 -0.04233,-0.211667 -0.169333,-0.804334 -0.105834,-0.529168 -0.423334,-0.529168 -0.402168,0 -1.164169,0.444501 -0.762001,0.4445 -1.418169,0.931335 -0.656167,0.486834 -1.333502,1.037168 -0.656168,0.529167 -0.677334,0.550334 -0.232834,0.148167 -0.740835,0.148167 -0.127,0 -0.127,-0.169334 0,-0.0635 0.169334,-0.402167 0.232833,-0.465667 2.286003,-4.021673 0.04233,-0.08467 0.381001,-0.677334 0.359834,-0.592668 0.656168,-1.121836 0.296333,-0.550334 0.550334,-1.185335 0.275167,-0.635001 0.275167,-0.931335 0,-0.296333 -0.232834,-0.5080004 -0.211667,-0.2328337 -0.635001,-0.2328337 -0.783168,0 -1.502836,0.7196681 -0.211667,0.211667 -0.232833,0.211667 -0.0635,0 -0.0635,-0.0635 0,-0.0635 0.232833,-0.296334 0.952502,-0.9736684 2.05317,-0.9736684 z"
         style="font-family:Miama;-inkscape-font-specification:Miama;fill:#3a2d1c;fill-opacity:1"
         id="path61564" />
      <text
         xml:space="preserve"
         transform="scale(0.26458333)"
         id="text72950"
         style="fill:black;fill-opacity:1;line-height:1.25;stroke:none;font-family:sans-serif;font-style:normal;font-weight:normal;font-size:40px;white-space:pre;shape-inside:url(#rect72952)" />
      <text
         xml:space="preserve"
         transform="matrix(0.26458333,0,0,0.26458333,-1.9243904,-0.82349892)"
         id="text82862"
         style="font-style:normal;font-variant:normal;font-weight:normal;font-stretch:normal;font-size:53.3333px;line-height:1.25;font-family:'Vladimir Script';-inkscape-font-specification:'Vladimir Script, Normal';font-variant-ligatures:normal;font-variant-caps:normal;font-variant-numeric:normal;font-variant-east-asian:normal;white-space:pre;shape-inside:url(#rect82864);fill:#3a2d1c;fill-opacity:1;stroke:none"><tspan
           x="197.88281"
           y="75.179622"
           id="tspan105479">.</tspan></text>
    </g>
  </g>
</svg>
