<?xml version="1.0" encoding="UTF-8" standalone="no"?>
<!-- Created with Inkscape (http://www.inkscape.org/) -->

<svg
   width="120mm"
   height="47mm"
   viewBox="0 0 120 47"
   version="1.1"
   id="svg61659"
   inkscape:version="1.1.1 (3bf5ae0d25, 2021-09-20)"
   sodipodi:docname="Tagline.svg"
   xmlns:inkscape="http://www.inkscape.org/namespaces/inkscape"
   xmlns:sodipodi="http://sodipodi.sourceforge.net/DTD/sodipodi-0.dtd"
   xmlns="http://www.w3.org/2000/svg"
   xmlns:svg="http://www.w3.org/2000/svg">
  <sodipodi:namedview
     id="namedview61661"
     pagecolor="#ffffff"
     bordercolor="#666666"
     borderopacity="1.0"
     inkscape:pageshadow="2"
     inkscape:pageopacity="0.0"
     inkscape:pagecheckerboard="0"
     inkscape:document-units="mm"
     showgrid="false"
     inkscape:zoom="3.6233469"
     inkscape:cx="276.5399"
     inkscape:cy="52.023724"
     inkscape:window-width="1682"
     inkscape:window-height="999"
     inkscape:window-x="235"
     inkscape:window-y="369"
     inkscape:window-maximized="0"
     inkscape:current-layer="g86332"
     width="209mm" />
  <defs
     id="defs61656" />
  <g
     inkscape:label="Layer 1"
     inkscape:groupmode="layer"
     id="layer1">
    <g
       id="g86332"
       transform="translate(-9.5006954,-8.881085)">
      <g
         id="g3428"
         style="stroke:none;stroke-opacity:1;fill:#9bcecd;fill-opacity:1">
        <g
           aria-label="Software Developer,"
           id="text63064"
           style="font-size:10.5833px;line-height:1.25;stroke-width:0.264583;fill:#9bcecd;fill-opacity:1;stroke:none;stroke-opacity:1">
          <path
             d="m 16.753831,15.161926 q -0.634998,0 -0.973664,0.306915 -0.338665,0.296333 -0.338665,0.740831 0,0.391582 0.148166,0.656165 0.148166,0.264582 0.391582,0.444499 0.243416,0.179916 0.550331,0.306915 0.317499,0.127 0.656165,0.243416 0.359832,0.127 0.730248,0.306916 0.370415,0.169333 0.666748,0.433915 0.296332,0.253999 0.476248,0.624415 0.190499,0.359832 0.190499,0.878414 0,0.518581 -0.211665,0.878414 -0.211666,0.359832 -0.560915,0.592664 -0.338666,0.22225 -0.783165,0.317499 -0.444498,0.105833 -0.910163,0.105833 -0.687915,0 -1.312329,-0.222249 -0.613832,-0.232833 -1.05833,-0.560915 l 0.349248,-0.507998 q 0.201083,0.126999 0.433916,0.253999 0.232832,0.116416 0.497415,0.222249 0.275166,0.105833 0.571498,0.169333 0.296332,0.0635 0.634998,0.0635 0.338666,0 0.645581,-0.0635 0.306916,-0.07408 0.539749,-0.222249 0.232832,-0.15875 0.370415,-0.402166 0.137583,-0.253999 0.137583,-0.624414 0,-0.380999 -0.148166,-0.645582 Q 18.298993,19.18358 18.055577,18.99308 17.812161,18.791997 17.494662,18.654415 17.177163,18.506248 16.838497,18.379249 16.478665,18.241666 16.10825,18.0935 q -0.359833,-0.15875 -0.656165,-0.391582 -0.296332,-0.243416 -0.486832,-0.592665 -0.179916,-0.359832 -0.179916,-0.899581 0,-0.328082 0.137583,-0.624414 0.148166,-0.296333 0.412749,-0.518582 0.275165,-0.222249 0.656164,-0.349249 0.391582,-0.137583 0.867831,-0.137583 0.317499,0 0.560915,0.01058 0.243416,0.01058 0.391582,0.01058 0.359832,0 0.560915,-0.07408 0.211666,-0.08467 0.433915,-0.296333 l 0.349249,0.359833 q -0.148166,0.201082 -0.296333,0.317499 -0.148166,0.116416 -0.317499,0.179916 -0.158749,0.0635 -0.338665,0.08467 -0.179916,0.01058 -0.391582,0.01058 -0.179916,0 -0.465665,-0.01058 -0.28575,-0.01058 -0.592665,-0.01058 z"
             style="font-family:Snippet;-inkscape-font-specification:Snippet;fill:#9bcecd;fill-opacity:1;stroke:none;stroke-opacity:1"
             id="path93782" />
          <path
             d="m 22.839224,21.998737 q -0.592665,0 -1.079497,-0.201082 -0.486832,-0.201083 -0.836081,-0.560915 -0.338665,-0.370416 -0.529165,-0.867831 -0.190499,-0.497415 -0.190499,-1.09008 0,-0.592665 0.190499,-1.09008 0.1905,-0.507998 0.529165,-0.878413 0.349249,-0.370416 0.836081,-0.582082 0.486832,-0.211666 1.079497,-0.211666 0.592664,0 1.068913,0.211666 0.486832,0.201083 0.825497,0.571498 0.349249,0.359832 0.539749,0.867831 0.190499,0.497415 0.190499,1.079496 0,0.592665 -0.190499,1.100664 -0.1905,0.507998 -0.539749,0.878413 -0.338665,0.359833 -0.825497,0.571499 -0.476249,0.201082 -1.068913,0.201082 z m 0,-4.931817 q -0.465666,0 -0.836081,0.158749 -0.370415,0.15875 -0.645581,0.444499 -0.264583,0.285749 -0.412749,0.687914 -0.137583,0.402166 -0.137583,0.888997 0,0.497415 0.137583,0.910164 0.148166,0.402166 0.412749,0.687915 0.275166,0.285749 0.645581,0.444498 0.370415,0.15875 0.836081,0.15875 0.455082,0 0.825497,-0.15875 0.380999,-0.169333 0.645581,-0.455082 0.264583,-0.296332 0.402166,-0.698497 0.148166,-0.412749 0.148166,-0.910164 0,-0.486832 -0.148166,-0.878414 Q 24.574885,17.945334 24.310302,17.659584 24.04572,17.373835 23.664721,17.225669 23.294306,17.06692 22.839224,17.06692 Z"
             style="font-family:Snippet;-inkscape-font-specification:Snippet;fill:#9bcecd;fill-opacity:1;stroke:none;stroke-opacity:1"
             id="path93784" />
          <path
             d="m 29.041019,19.384662 h -1.566328 v 5.154067 h -0.582082 v -7.873975 q 0,-0.539748 0.08467,-1.005413 0.08467,-0.465665 0.275165,-0.804331 0.1905,-0.338666 0.507999,-0.529165 0.317499,-0.201083 0.793747,-0.201083 0.391582,0 0.677331,0.127 0.296333,0.116416 0.486832,0.328082 0.1905,0.201083 0.285749,0.476249 0.09525,0.275166 0.09525,0.571498 0,0.941914 -0.560915,1.502828 -0.560915,0.560915 -1.555745,0.560915 h -0.507998 v 1.142997 h 1.566328 z m -1.566328,-2.243659 h 0.507998 q 0.412749,0 0.698498,-0.127 0.285749,-0.126999 0.465665,-0.338665 0.190499,-0.211666 0.264582,-0.476249 0.08467,-0.275166 0.08467,-0.571498 0,-0.380999 -0.232833,-0.666748 -0.232832,-0.285749 -0.709081,-0.285749 -0.338665,0 -0.550331,0.158749 -0.201083,0.15875 -0.328083,0.433916 -0.116416,0.264582 -0.158749,0.624414 -0.04233,0.349249 -0.04233,0.740831 z"
             style="font-family:Snippet;-inkscape-font-specification:Snippet;fill:#9bcecd;fill-opacity:1;stroke:none;stroke-opacity:1"
             id="path93786" />
          <path
             d="m 31.157675,16.558921 q 0,-0.423332 -0.105833,-0.730247 -0.105833,-0.306916 -0.317499,-0.529165 l 0.359832,-0.349249 q 0.201083,0.148166 0.317499,0.338665 0.127,0.179916 0.201083,0.391582 0.07408,0.211666 0.09525,0.433916 0.03175,0.222249 0.03175,0.444498 v 0.0635 h 1.672161 v 0.582082 h -1.672161 v 3.174989 q 0,0.306916 0.0635,0.518582 0.0635,0.201083 0.169333,0.328082 0.105833,0.116417 0.253999,0.169333 0.148167,0.05292 0.306916,0.05292 0.1905,0 0.402166,-0.05292 0.211666,-0.0635 0.402165,-0.137583 0.190499,-0.08467 0.338666,-0.169332 0.158749,-0.09525 0.253999,-0.148167 l 0.275165,0.444499 q -0.08467,0.0635 -0.275165,0.169333 -0.179916,0.105833 -0.423332,0.211666 -0.243416,0.09525 -0.529165,0.158749 -0.275166,0.07408 -0.550332,0.07408 -0.253999,0 -0.486832,-0.08467 -0.222249,-0.07408 -0.402165,-0.253999 -0.169333,-0.1905 -0.275166,-0.497415 -0.105833,-0.317499 -0.105833,-0.783165 z"
             style="font-family:Snippet;-inkscape-font-specification:Snippet;fill:#9bcecd;fill-opacity:1;stroke:none;stroke-opacity:1"
             id="path93788" />
          <path
             d="m 37.761642,21.977571 q -0.275166,0.0635 -0.497415,0.0635 -0.338666,0 -0.592665,-0.126999 -0.243416,-0.116416 -0.423332,-0.317499 -0.169333,-0.201083 -0.285749,-0.455082 -0.105833,-0.253999 -0.169333,-0.529165 l -0.952497,-3.884071 0.571498,-0.158749 0.952497,3.884071 q 0.105833,0.455081 0.317499,0.740831 0.211666,0.285749 0.613832,0.338665 l 0.89958,-2.614075 v -2.296576 h 0.592665 v 2.296576 l 0.539748,1.534579 q 0.148166,0.433915 0.338666,0.730247 0.201083,0.285749 0.571498,0.338666 l 1.312329,-4.952984 0.550332,0.179916 -1.375829,5.22815 q -0.275166,0.0635 -0.497415,0.0635 -0.317499,0 -0.560915,-0.126999 -0.243416,-0.127 -0.423332,-0.328082 -0.169333,-0.201083 -0.296332,-0.455082 -0.116417,-0.253999 -0.1905,-0.518582 l -0.275166,-0.89958 -0.719664,2.264826 z"
             style="font-family:Snippet;-inkscape-font-specification:Snippet;fill:#9bcecd;fill-opacity:1;stroke:none;stroke-opacity:1"
             id="path93790" />
          <path
             d="m 44.587857,21.998737 q -0.359832,0 -0.677331,-0.09525 -0.306916,-0.09525 -0.539748,-0.28575 -0.22225,-0.190499 -0.349249,-0.476248 -0.127,-0.285749 -0.127,-0.656165 0,-0.444498 0.1905,-0.740831 0.201082,-0.296332 0.518581,-0.476248 0.317499,-0.190499 0.709081,-0.264583 0.402166,-0.07408 0.814914,-0.07408 h 1.02658 v -0.592664 q 0,-0.656165 -0.264582,-0.963081 -0.264583,-0.306915 -0.836081,-0.306915 -0.423332,0 -0.857247,0.179916 -0.433915,0.179916 -0.709081,0.391582 l -0.285749,-0.444499 q 0.306915,-0.275166 0.804331,-0.476248 0.507998,-0.201083 1.047746,-0.201083 0.888997,0 1.280579,0.455082 0.402166,0.444499 0.402166,1.248829 v 2.14841 q 0,0.814914 0.412749,1.259413 l -0.359833,0.349249 q -0.222249,-0.169333 -0.349249,-0.380999 -0.126999,-0.222249 -0.201082,-0.465665 -0.201083,0.402165 -0.613832,0.634998 -0.412748,0.232832 -1.037163,0.232832 z m 0,-0.550331 q 0.317499,0 0.592665,-0.08467 0.275166,-0.09525 0.486832,-0.264582 0.222249,-0.169333 0.349249,-0.423332 0.126999,-0.253999 0.137582,-0.582082 v -0.624414 h -1.02658 q -0.296332,0 -0.592664,0.04233 -0.28575,0.03175 -0.518582,0.148166 -0.232833,0.105833 -0.380999,0.306916 -0.137583,0.201082 -0.137583,0.518581 0,0.529165 0.285749,0.751415 0.285749,0.211666 0.804331,0.211666 z"
             style="font-family:Snippet;-inkscape-font-specification:Snippet;fill:#9bcecd;fill-opacity:1;stroke:none;stroke-opacity:1"
             id="path93792" />
          <path
             d="m 51.318821,17.151586 q -0.09525,-0.01058 -0.211666,-0.03175 -0.09525,-0.02117 -0.22225,-0.03175 -0.116416,-0.01058 -0.264582,-0.01058 -0.433916,0 -0.783164,0.275166 -0.349249,0.275166 -0.624415,0.761997 V 18.157 21.892904 H 48.630662 V 18.157 q 0,-0.423332 -0.105833,-0.730248 -0.105833,-0.306916 -0.317499,-0.529165 l 0.359833,-0.349249 q 0.243415,0.179916 0.380998,0.423332 0.137583,0.232833 0.201083,0.507998 0.275166,-0.486831 0.645581,-0.719664 0.370416,-0.243416 0.899581,-0.243416 0.116416,0 0.232832,0.01058 0.116417,0.01058 0.201083,0.03175 0.105833,0.02117 0.1905,0.04233 z"
             style="font-family:Snippet;-inkscape-font-specification:Snippet;fill:#9bcecd;fill-opacity:1;stroke:none;stroke-opacity:1"
             id="path93794" />
          <path
             d="m 52.588798,19.776244 q 0.09525,0.825498 0.518582,1.24883 0.433915,0.423332 1.259412,0.423332 0.444499,0 0.846664,-0.148166 0.402166,-0.148167 0.804331,-0.359833 l 0.275166,0.444499 q -0.370416,0.253999 -0.867831,0.433915 -0.486832,0.179916 -1.05833,0.179916 -1.195913,0 -1.809744,-0.698497 -0.603248,-0.709082 -0.603248,-2.021411 0,-0.550331 0.158749,-1.047746 0.169333,-0.497415 0.465666,-0.878414 0.306915,-0.380999 0.730247,-0.603248 0.423332,-0.232833 0.941914,-0.232833 0.391582,0 0.740831,0.116416 0.349249,0.105833 0.603248,0.317499 0.264582,0.201083 0.412749,0.507999 0.158749,0.296332 0.158749,0.666748 0,0.465665 -0.201083,0.783164 -0.201082,0.317499 -0.529165,0.507998 -0.317499,0.1905 -0.740831,0.275166 -0.412748,0.08467 -0.857247,0.08467 z m 1.661578,-2.741074 q -0.380999,0 -0.698498,0.190499 -0.306916,0.1905 -0.529165,0.497415 -0.222249,0.306916 -0.349249,0.698498 -0.116416,0.391582 -0.116416,0.804331 h 1.280579 q 0.539748,0 0.878414,-0.09525 0.338666,-0.105833 0.529165,-0.264582 0.190499,-0.15875 0.253999,-0.349249 0.0635,-0.201083 0.0635,-0.391582 0,-0.497415 -0.370415,-0.793748 -0.359833,-0.296332 -0.941914,-0.296332 z"
             style="font-family:Snippet;-inkscape-font-specification:Snippet;fill:#9bcecd;fill-opacity:1;stroke:none;stroke-opacity:1"
             id="path93796" />
          <path
             d="m 61.203578,15.214842 q -0.338666,-0.05292 -0.645581,-0.190499 -0.296333,-0.137583 -0.507999,-0.433915 l 0.349249,-0.359833 q 0.222249,0.211666 0.529165,0.317499 0.306916,0.105833 0.730248,0.105833 0.497415,0 0.99483,-0.05292 0.507998,-0.05292 1.174746,-0.05292 0.846664,0 1.523995,0.285749 0.677332,0.28575 1.15358,0.793748 0.476249,0.497415 0.730248,1.174746 0.264582,0.677331 0.264582,1.471079 0,0.793747 -0.264582,1.481662 -0.253999,0.677331 -0.730248,1.174746 -0.476248,0.497415 -1.15358,0.783164 -0.677331,0.285749 -1.523995,0.285749 -0.814914,0 -1.333496,-0.02117 -0.507998,-0.01058 -0.793747,-0.03175 -0.349249,-0.02117 -0.497415,-0.05292 z m 2.624658,-0.08467 q -0.582081,0 -1.05833,0.05292 -0.476248,0.04233 -0.920747,0.05292 v 6.12773 q 0.328082,0.02117 0.804331,0.04233 0.486832,0.01058 1.174746,0.01058 0.698498,0 1.259413,-0.222249 0.560915,-0.232833 0.952497,-0.645582 0.402165,-0.423332 0.613831,-0.99483 0.211666,-0.582081 0.211666,-1.280579 0,-0.698498 -0.211666,-1.269996 -0.211666,-0.582082 -0.613831,-0.99483 -0.391582,-0.412749 -0.952497,-0.645582 -0.560915,-0.232832 -1.259413,-0.232832 z"
             style="font-family:Snippet;-inkscape-font-specification:Snippet;fill:#9bcecd;fill-opacity:1;stroke:none;stroke-opacity:1"
             id="path93798" />
          <path
             d="m 69.405628,19.776244 q 0.09525,0.825498 0.518581,1.24883 0.433915,0.423332 1.259413,0.423332 0.444498,0 0.846664,-0.148166 0.402165,-0.148167 0.804331,-0.359833 l 0.275165,0.444499 q -0.370415,0.253999 -0.86783,0.433915 -0.486832,0.179916 -1.05833,0.179916 -1.195913,0 -1.809744,-0.698497 -0.603248,-0.709082 -0.603248,-2.021411 0,-0.550331 0.158749,-1.047746 0.169333,-0.497415 0.465665,-0.878414 0.306916,-0.380999 0.730248,-0.603248 0.423332,-0.232833 0.941914,-0.232833 0.391582,0 0.740831,0.116416 0.349248,0.105833 0.603248,0.317499 0.264582,0.201083 0.412748,0.507999 0.15875,0.296332 0.15875,0.666748 0,0.465665 -0.201083,0.783164 -0.201083,0.317499 -0.529165,0.507998 -0.317499,0.1905 -0.740831,0.275166 -0.412749,0.08467 -0.857247,0.08467 z m 1.661578,-2.741074 q -0.380999,0 -0.698498,0.190499 -0.306916,0.1905 -0.529165,0.497415 -0.222249,0.306916 -0.349249,0.698498 -0.116416,0.391582 -0.116416,0.804331 h 1.280579 q 0.539748,0 0.878414,-0.09525 0.338665,-0.105833 0.529165,-0.264582 0.190499,-0.15875 0.253999,-0.349249 0.0635,-0.201083 0.0635,-0.391582 0,-0.497415 -0.370416,-0.793748 -0.359832,-0.296332 -0.941913,-0.296332 z"
             style="font-family:Snippet;-inkscape-font-specification:Snippet;fill:#9bcecd;fill-opacity:1;stroke:none;stroke-opacity:1"
             id="path93800" />
          <path
             d="m 77.19492,21.977571 q -0.275166,0.0635 -0.497415,0.0635 -0.349249,0 -0.613832,-0.126999 -0.253999,-0.116416 -0.444498,-0.317499 -0.190499,-0.201083 -0.317499,-0.455082 -0.127,-0.264582 -0.201083,-0.529165 l -1.111246,-3.884071 0.571498,-0.158749 1.111246,3.884071 q 0.116417,0.444498 0.359833,0.740831 0.253999,0.285749 0.666747,0.338665 l 1.566329,-4.963567 0.550331,0.179916 -1.640411,5.22815 z"
             style="font-family:Snippet;-inkscape-font-specification:Snippet;fill:#9bcecd;fill-opacity:1;stroke:none;stroke-opacity:1"
             id="path93802" />
          <path
             d="m 80.369899,19.776244 q 0.09525,0.825498 0.518582,1.24883 0.433915,0.423332 1.259412,0.423332 0.444499,0 0.846664,-0.148166 0.402166,-0.148167 0.804331,-0.359833 l 0.275166,0.444499 q -0.370416,0.253999 -0.867831,0.433915 -0.486831,0.179916 -1.05833,0.179916 -1.195912,0 -1.809744,-0.698497 -0.603248,-0.709082 -0.603248,-2.021411 0,-0.550331 0.15875,-1.047746 0.169332,-0.497415 0.465665,-0.878414 0.306915,-0.380999 0.730247,-0.603248 0.423332,-0.232833 0.941914,-0.232833 0.391582,0 0.740831,0.116416 0.349249,0.105833 0.603248,0.317499 0.264583,0.201083 0.412749,0.507999 0.158749,0.296332 0.158749,0.666748 0,0.465665 -0.201082,0.783164 -0.201083,0.317499 -0.529165,0.507998 -0.317499,0.1905 -0.740831,0.275166 -0.412749,0.08467 -0.857248,0.08467 z m 1.661578,-2.741074 q -0.380999,0 -0.698498,0.190499 -0.306915,0.1905 -0.529165,0.497415 -0.222249,0.306916 -0.349249,0.698498 -0.116416,0.391582 -0.116416,0.804331 h 1.280579 q 0.539749,0 0.878414,-0.09525 0.338666,-0.105833 0.529165,-0.264582 0.1905,-0.15875 0.253999,-0.349249 0.0635,-0.201083 0.0635,-0.391582 0,-0.497415 -0.370415,-0.793748 -0.359832,-0.296332 -0.941914,-0.296332 z"
             style="font-family:Snippet;-inkscape-font-specification:Snippet;fill:#9bcecd;fill-opacity:1;stroke:none;stroke-opacity:1"
             id="path93804" />
          <path
             d="m 85.502779,14.209429 h 0.582082 v 6.170063 q 0,0.423332 0.105833,0.730248 0.105833,0.306916 0.317499,0.529165 l -0.359832,0.349249 q -0.201083,-0.137583 -0.328083,-0.328082 -0.126999,-0.1905 -0.201082,-0.402166 -0.0635,-0.211666 -0.09525,-0.433915 -0.02117,-0.222249 -0.02117,-0.444499 z"
             style="font-family:Snippet;-inkscape-font-specification:Snippet;fill:#9bcecd;fill-opacity:1;stroke:none;stroke-opacity:1"
             id="path93806" />
          <path
             d="m 90.360509,21.998737 q -0.592665,0 -1.079497,-0.201082 -0.486832,-0.201083 -0.836081,-0.560915 -0.338665,-0.370416 -0.529164,-0.867831 -0.1905,-0.497415 -0.1905,-1.09008 0,-0.592665 0.1905,-1.09008 0.190499,-0.507998 0.529164,-0.878413 0.349249,-0.370416 0.836081,-0.582082 0.486832,-0.211666 1.079497,-0.211666 0.592665,0 1.068913,0.211666 0.486832,0.201083 0.825497,0.571498 0.349249,0.359832 0.539749,0.867831 0.190499,0.497415 0.190499,1.079496 0,0.592665 -0.190499,1.100664 -0.1905,0.507998 -0.539749,0.878413 -0.338665,0.359833 -0.825497,0.571499 -0.476248,0.201082 -1.068913,0.201082 z m 0,-4.931817 q -0.465665,0 -0.836081,0.158749 -0.370415,0.15875 -0.645581,0.444499 -0.264583,0.285749 -0.412749,0.687914 -0.137583,0.402166 -0.137583,0.888997 0,0.497415 0.137583,0.910164 0.148166,0.402166 0.412749,0.687915 0.275166,0.285749 0.645581,0.444498 0.370416,0.15875 0.836081,0.15875 0.455082,0 0.825497,-0.15875 0.380999,-0.169333 0.645581,-0.455082 0.264583,-0.296332 0.402166,-0.698497 0.148166,-0.412749 0.148166,-0.910164 0,-0.486832 -0.148166,-0.878414 Q 92.09617,17.945334 91.831587,17.659584 91.567005,17.373835 91.186006,17.225669 90.815591,17.06692 90.360509,17.06692 Z"
             style="font-family:Snippet;-inkscape-font-specification:Snippet;fill:#9bcecd;fill-opacity:1;stroke:none;stroke-opacity:1"
             id="path93808" />
          <path
             d="m 96.636382,16.516588 q 0.539749,0 0.952497,0.211666 0.423332,0.211666 0.709081,0.582082 0.296333,0.370415 0.444499,0.86783 0.148166,0.486832 0.148166,1.05833 0,0.592665 -0.179916,1.100663 -0.169333,0.497415 -0.497415,0.867831 -0.317499,0.370415 -0.772581,0.582081 -0.455082,0.211666 -1.015997,0.211666 -0.444498,0 -0.793747,-0.03175 -0.338666,-0.03175 -0.582082,-0.0635 v 2.635241 H 94.466806 V 18.157 q 0,-0.423332 -0.105833,-0.730248 -0.105833,-0.306916 -0.317499,-0.529165 l 0.359832,-0.349249 q 0.232833,0.179916 0.359832,0.402165 0.137583,0.22225 0.201083,0.486832 0.222249,-0.433915 0.656165,-0.677331 0.444498,-0.243416 1.015996,-0.243416 z m 0,0.550332 q -0.264582,0 -0.529165,0.08467 -0.264582,0.08467 -0.486831,0.253999 -0.22225,0.169333 -0.380999,0.423332 -0.15875,0.253999 -0.1905,0.592665 v 2.931574 q 0.1905,0.02117 0.560915,0.0635 0.370416,0.03175 0.804331,0.03175 0.423332,0 0.761998,-0.15875 0.349248,-0.158749 0.592664,-0.444498 0.254,-0.285749 0.380999,-0.687915 0.137583,-0.402165 0.137583,-0.888997 0,-0.423332 -0.105833,-0.825497 -0.105833,-0.402166 -0.317499,-0.698498 -0.201083,-0.306916 -0.507998,-0.486832 -0.306916,-0.190499 -0.719665,-0.190499 z"
             style="font-family:Snippet;-inkscape-font-specification:Snippet;fill:#9bcecd;fill-opacity:1;stroke:none;stroke-opacity:1"
             id="path93810" />
          <path
             d="m 100.68978,19.776244 q 0.0953,0.825498 0.51858,1.24883 0.43391,0.423332 1.25941,0.423332 0.4445,0 0.84666,-0.148166 0.40217,-0.148167 0.80434,-0.359833 l 0.27516,0.444499 q -0.37041,0.253999 -0.86783,0.433915 -0.48683,0.179916 -1.05833,0.179916 -1.19591,0 -1.80974,-0.698497 -0.60325,-0.709082 -0.60325,-2.021411 0,-0.550331 0.15875,-1.047746 0.16933,-0.497415 0.46566,-0.878414 0.30692,-0.380999 0.73025,-0.603248 0.42333,-0.232833 0.94191,-0.232833 0.39159,0 0.74084,0.116416 0.34924,0.105833 0.60324,0.317499 0.26459,0.201083 0.41275,0.507999 0.15875,0.296332 0.15875,0.666748 0,0.465665 -0.20108,0.783164 -0.20108,0.317499 -0.52917,0.507998 -0.31749,0.1905 -0.74083,0.275166 -0.41275,0.08467 -0.85724,0.08467 z m 1.66157,-2.741074 q -0.38099,0 -0.69849,0.190499 -0.30692,0.1905 -0.52917,0.497415 -0.22225,0.306916 -0.34925,0.698498 -0.11641,0.391582 -0.11641,0.804331 h 1.28058 q 0.53974,0 0.87841,-0.09525 0.33867,-0.105833 0.52916,-0.264582 0.1905,-0.15875 0.254,-0.349249 0.0635,-0.201083 0.0635,-0.391582 0,-0.497415 -0.37041,-0.793748 -0.35983,-0.296332 -0.94192,-0.296332 z"
             style="font-family:Snippet;-inkscape-font-specification:Snippet;fill:#9bcecd;fill-opacity:1;stroke:none;stroke-opacity:1"
             id="path93812" />
          <path
             d="m 108.56373,17.151586 q -0.0953,-0.01058 -0.21166,-0.03175 -0.0952,-0.02117 -0.22225,-0.03175 -0.11642,-0.01058 -0.26459,-0.01058 -0.43391,0 -0.78316,0.275166 -0.34925,0.275166 -0.62441,0.761997 v 0.04233 3.735904 h -0.58209 V 18.157 q 0,-0.423332 -0.10583,-0.730248 -0.10583,-0.306916 -0.3175,-0.529165 l 0.35983,-0.349249 q 0.24342,0.179916 0.381,0.423332 0.13759,0.232833 0.20109,0.507998 0.27516,-0.486831 0.64558,-0.719664 0.37041,-0.243416 0.89958,-0.243416 0.11641,0 0.23283,0.01058 0.11642,0.01058 0.20108,0.03175 0.10584,0.02117 0.1905,0.04233 z"
             style="font-family:Snippet;-inkscape-font-specification:Snippet;fill:#9bcecd;fill-opacity:1;stroke:none;stroke-opacity:1"
             id="path93814" />
          <path
             d="m 109.09286,21.342573 q 0,-0.148166 0.0952,-0.243416 0.0953,-0.105833 0.24342,-0.105833 0.14817,0 0.24342,0.105833 0.0953,0.09525 0.0953,0.243416 v 0.634998 q 0,0.444498 -0.16934,0.878414 -0.16933,0.444498 -0.5715,0.730247 l -0.35983,-0.349249 q 0.21167,-0.222249 0.3175,-0.529165 0.10583,-0.306915 0.10583,-0.730247 v -0.634998 z"
             style="font-family:Snippet;-inkscape-font-specification:Snippet;fill:#9bcecd;fill-opacity:1;stroke:none;stroke-opacity:1"
             id="path93816" />
        </g>
        <g
           aria-label="Designer,"
           id="text63662"
           style="font-size:10.5833px;line-height:1.25;stroke-width:0.264583;fill:#9bcecd;fill-opacity:1;stroke:none;stroke-opacity:1">
          <path
             d="m 54.286471,29.259354 q -0.338665,-0.05292 -0.645581,-0.190499 -0.296332,-0.137583 -0.507998,-0.433916 l 0.349249,-0.359832 q 0.222249,0.211666 0.529164,0.317499 0.306916,0.105833 0.730248,0.105833 0.497415,0 0.99483,-0.05292 0.507999,-0.05292 1.174747,-0.05292 0.846664,0 1.523995,0.285749 0.677331,0.285749 1.153579,0.793748 0.476249,0.497415 0.730248,1.174746 0.264583,0.677331 0.264583,1.471079 0,0.793747 -0.264583,1.481662 -0.253999,0.677331 -0.730248,1.174746 -0.476248,0.497415 -1.153579,0.783164 -0.677331,0.285749 -1.523995,0.285749 -0.814914,0 -1.333496,-0.02117 -0.507999,-0.01058 -0.793748,-0.03175 -0.349249,-0.02117 -0.497415,-0.05292 z m 2.624659,-0.08467 q -0.582082,0 -1.05833,0.05292 -0.476249,0.04233 -0.920747,0.05292 v 6.12773 q 0.328082,0.02117 0.80433,0.04233 0.486832,0.01058 1.174747,0.01058 0.698497,0 1.259412,-0.22225 0.560915,-0.232832 0.952497,-0.645581 0.402166,-0.423332 0.613832,-0.99483 0.211666,-0.582082 0.211666,-1.280579 0,-0.698498 -0.211666,-1.269996 Q 59.525205,30.46585 59.123039,30.053101 58.731457,29.640353 58.170542,29.40752 57.609627,29.174688 56.91113,29.174688 Z"
             style="font-family:Snippet;-inkscape-font-specification:Snippet;fill:#9bcecd;fill-opacity:1;stroke:none;stroke-opacity:1"
             id="path93819" />
          <path
             d="m 62.488519,33.820756 q 0.09525,0.825498 0.518582,1.24883 0.433915,0.423331 1.259412,0.423331 0.444499,0 0.846664,-0.148166 0.402166,-0.148166 0.804331,-0.359832 l 0.275166,0.444499 q -0.370416,0.253999 -0.867831,0.433915 -0.486831,0.179916 -1.05833,0.179916 -1.195913,0 -1.809744,-0.698498 -0.603248,-0.709081 -0.603248,-2.02141 0,-0.550332 0.158749,-1.047747 0.169333,-0.497415 0.465666,-0.878413 0.306915,-0.380999 0.730247,-0.603249 0.423332,-0.232832 0.941914,-0.232832 0.391582,0 0.740831,0.116416 0.349249,0.105833 0.603248,0.317499 0.264583,0.201083 0.412749,0.507999 0.158749,0.296332 0.158749,0.666747 0,0.465666 -0.201082,0.783165 -0.201083,0.317499 -0.529165,0.507998 -0.317499,0.190499 -0.740831,0.275166 -0.412749,0.08467 -0.857248,0.08467 z m 1.661578,-2.741074 q -0.380999,0 -0.698498,0.190499 -0.306915,0.190499 -0.529165,0.497415 -0.222249,0.306916 -0.349249,0.698498 -0.116416,0.391582 -0.116416,0.804331 h 1.280579 q 0.539749,0 0.878414,-0.09525 0.338666,-0.105833 0.529165,-0.264583 0.1905,-0.158749 0.253999,-0.349249 0.0635,-0.201082 0.0635,-0.391582 0,-0.497415 -0.370415,-0.793747 -0.359832,-0.296332 -0.941914,-0.296332 z"
             style="font-family:Snippet;-inkscape-font-specification:Snippet;fill:#9bcecd;fill-opacity:1;stroke:none;stroke-opacity:1"
             id="path93821" />
          <path
             d="m 67.388572,34.984919 q 0.275165,0.179916 0.666747,0.349249 0.402166,0.158749 0.910164,0.158749 0.22225,0 0.423332,-0.04233 0.211666,-0.05292 0.370416,-0.148166 0.158749,-0.105833 0.243416,-0.275166 0.09525,-0.169332 0.09525,-0.412748 0,-0.370416 -0.201082,-0.582082 -0.201083,-0.211666 -0.507999,-0.349249 -0.296332,-0.148166 -0.645581,-0.264582 -0.349249,-0.116417 -0.656165,-0.296333 -0.296332,-0.190499 -0.497415,-0.486831 -0.201082,-0.296333 -0.201082,-0.793748 0,-0.253999 0.105833,-0.486832 0.105833,-0.232832 0.306915,-0.402165 0.201083,-0.179916 0.486832,-0.285749 0.285749,-0.105833 0.645581,-0.105833 0.317499,0 0.613832,0.02117 0.296332,0.01058 0.656164,0.04233 v 0.550331 q -0.825497,-0.0635 -1.344079,-0.0635 -0.412748,0 -0.634998,0.22225 -0.222249,0.222249 -0.222249,0.507998 0,0.370416 0.201083,0.582082 0.201082,0.201082 0.497415,0.349248 0.306915,0.137583 0.656164,0.264583 0.349249,0.116416 0.645582,0.306916 0.306915,0.179916 0.507998,0.476248 0.201083,0.296333 0.201083,0.793748 0,0.391582 -0.15875,0.666747 -0.148166,0.264583 -0.412749,0.433916 -0.253999,0.169333 -0.582081,0.243416 -0.328082,0.08467 -0.677331,0.08467 -0.529165,0 -0.99483,-0.179916 -0.465666,-0.179916 -0.793748,-0.433915 z"
             style="font-family:Snippet;-inkscape-font-specification:Snippet;fill:#9bcecd;fill-opacity:1;stroke:none;stroke-opacity:1"
             id="path93823" />
          <path
             d="m 72.076971,30.59285 q 0.201083,0.148166 0.317499,0.338665 0.127,0.179916 0.201083,0.391582 0.07408,0.211666 0.09525,0.433916 0.03175,0.222249 0.03175,0.444498 v 3.735905 h -0.582081 v -3.735905 q 0,-0.423332 -0.105833,-0.730247 -0.105833,-0.306916 -0.317499,-0.529165 z m -0.222249,-1.661578 q 0,-0.211666 0.137583,-0.349249 0.148166,-0.148166 0.349249,-0.148166 0.211666,0 0.349248,0.148166 0.148167,0.137583 0.148167,0.349249 0,0.201082 -0.148167,0.349249 -0.137582,0.137583 -0.349248,0.137583 -0.201083,0 -0.349249,-0.137583 -0.137583,-0.148167 -0.137583,-0.349249 z"
             style="font-family:Snippet;-inkscape-font-specification:Snippet;fill:#9bcecd;fill-opacity:1;stroke:none;stroke-opacity:1"
             id="path93825" />
          <path
             d="m 73.897281,34.76267 q 0,-0.275166 0.116416,-0.486832 0.126999,-0.222249 0.328082,-0.370415 0.211666,-0.148167 0.497415,-0.232833 0.285749,-0.08467 0.624415,-0.09525 -0.380999,-0.465665 -0.380999,-1.164163 0,-0.433915 0.148166,-0.772581 0.148166,-0.349248 0.412749,-0.582081 0.264582,-0.243416 0.624415,-0.370416 0.370415,-0.126999 0.80433,-0.126999 0.201083,0 0.380999,0.03175 0.179916,0.02117 0.349249,0.07408 h 1.746245 v 0.539748 l -0.963081,-0.0635 q 0.22225,0.232833 0.349249,0.550332 0.127,0.317499 0.127,0.719664 0,0.433916 -0.148166,0.772581 -0.148167,0.338666 -0.412749,0.582082 -0.264583,0.232832 -0.634998,0.359832 -0.359832,0.126999 -0.793748,0.126999 -0.592664,0 -1.037163,-0.222249 -0.08467,-0.01058 -0.169333,-0.01058 -0.08467,-0.01058 -0.179916,-0.01058 -0.211666,0 -0.423332,0.03175 -0.211666,0.03175 -0.391582,0.116417 -0.169333,0.08467 -0.285749,0.222249 -0.105833,0.137583 -0.105833,0.349249 0,0.211666 0.09525,0.349249 0.09525,0.126999 0.264582,0.201082 0.169333,0.0635 0.402166,0.08467 0.243415,0.02117 0.518581,0.02117 0.328083,0 0.698498,-0.01058 0.370416,-0.02117 0.761998,-0.02117 0.444498,0 0.878414,0.0635 0.444498,0.05292 0.793747,0.22225 0.349249,0.158749 0.560915,0.465665 0.211666,0.306916 0.211666,0.793747 0,0.507999 -0.232833,0.836081 -0.232832,0.338666 -0.603248,0.539748 -0.370415,0.211666 -0.83608,0.296333 -0.465666,0.08467 -0.931331,0.08467 -0.465665,0 -0.920747,-0.08467 -0.444499,-0.08467 -0.804331,-0.296333 -0.359832,-0.201082 -0.582081,-0.539748 -0.222249,-0.338666 -0.222249,-0.836081 0,-0.338665 0.01058,-0.656164 0.02117,-0.317499 0.04233,-0.497415 -0.306916,-0.127 -0.497415,-0.359833 -0.190499,-0.232832 -0.190499,-0.624414 z m 2.031993,1.185329 q -0.201083,0 -0.402165,-0.01058 -0.1905,-0.01058 -0.380999,-0.04233 -0.01058,0.08467 -0.02117,0.338665 -0.01058,0.254 -0.01058,0.666748 0,0.582082 0.486832,0.888998 0.497415,0.317499 1.460495,0.317499 0.349249,0 0.698498,-0.05292 0.359832,-0.04233 0.656164,-0.179916 0.296333,-0.137583 0.476249,-0.370416 0.190499,-0.232832 0.190499,-0.603248 0,-0.317499 -0.169332,-0.518581 -0.15875,-0.1905 -0.423332,-0.296333 -0.264583,-0.09525 -0.613832,-0.137583 -0.349249,-0.03175 -0.709081,-0.03175 -0.264582,0 -0.582081,0.02117 -0.317499,0.01058 -0.656165,0.01058 z m 1.132413,-4.836568 q -0.645581,0 -1.02658,0.349249 -0.370415,0.349249 -0.370415,0.941914 0,0.592665 0.370415,0.941914 0.380999,0.349249 1.02658,0.349249 0.634998,0 1.015997,-0.349249 0.380999,-0.349249 0.380999,-0.941914 0,-0.592665 -0.380999,-0.941914 -0.380999,-0.349249 -1.015997,-0.349249 z"
             style="font-family:Snippet;-inkscape-font-specification:Snippet;fill:#9bcecd;fill-opacity:1;stroke:none;stroke-opacity:1"
             id="path93827" />
          <path
             d="m 84.522894,35.937416 q -0.169333,-0.317499 -0.222249,-0.709081 -0.05292,-0.402165 -0.05292,-0.709081 0,-0.253999 0.01058,-0.476249 0.01058,-0.222249 0.02117,-0.465665 0.02117,-0.253999 0.03175,-0.539748 0.02117,-0.285749 0.02117,-0.656165 0,-0.656164 -0.296332,-0.96308 -0.296332,-0.306916 -0.89958,-0.306916 -0.571499,0 -0.963081,0.28575 -0.391582,0.275165 -0.761997,0.783164 v 0.02117 3.735905 h -0.582082 v -3.735905 q 0,-0.423332 -0.105833,-0.730247 -0.105833,-0.306916 -0.317499,-0.529165 l 0.359833,-0.349249 q 0.253999,0.179916 0.391582,0.444498 0.137582,0.254 0.190499,0.529165 0.349249,-0.507998 0.793747,-0.751414 0.455082,-0.253999 0.994831,-0.253999 0.93133,0 1.354662,0.444498 0.423332,0.444499 0.423332,1.259413 0,0.380999 -0.02117,0.698498 -0.01058,0.306916 -0.03175,0.582081 -0.01058,0.275166 -0.02117,0.529165 -0.01058,0.254 -0.01058,0.507999 0,0.349249 0.05292,0.666748 0.05292,0.317499 0.201083,0.687914 z"
             style="font-family:Snippet;-inkscape-font-specification:Snippet;fill:#9bcecd;fill-opacity:1;stroke:none;stroke-opacity:1"
             id="path93829" />
          <path
             d="m 86.935874,33.820756 q 0.09525,0.825498 0.518582,1.24883 0.433915,0.423331 1.259413,0.423331 0.444498,0 0.846664,-0.148166 0.402165,-0.148166 0.80433,-0.359832 l 0.275166,0.444499 q -0.370415,0.253999 -0.86783,0.433915 -0.486832,0.179916 -1.05833,0.179916 -1.195913,0 -1.809745,-0.698498 -0.603248,-0.709081 -0.603248,-2.02141 0,-0.550332 0.15875,-1.047747 0.169333,-0.497415 0.465665,-0.878413 0.306916,-0.380999 0.730248,-0.603249 0.423332,-0.232832 0.941913,-0.232832 0.391582,0 0.740831,0.116416 0.349249,0.105833 0.603248,0.317499 0.264583,0.201083 0.412749,0.507999 0.15875,0.296332 0.15875,0.666747 0,0.465666 -0.201083,0.783165 -0.201083,0.317499 -0.529165,0.507998 -0.317499,0.190499 -0.740831,0.275166 -0.412749,0.08467 -0.857247,0.08467 z m 1.661578,-2.741074 q -0.380998,0 -0.698497,0.190499 -0.306916,0.190499 -0.529165,0.497415 -0.22225,0.306916 -0.349249,0.698498 -0.116417,0.391582 -0.116417,0.804331 h 1.28058 q 0.539748,0 0.878413,-0.09525 0.338666,-0.105833 0.529165,-0.264583 0.1905,-0.158749 0.254,-0.349249 0.0635,-0.201082 0.0635,-0.391582 0,-0.497415 -0.370415,-0.793747 -0.359832,-0.296332 -0.941914,-0.296332 z"
             style="font-family:Snippet;-inkscape-font-specification:Snippet;fill:#9bcecd;fill-opacity:1;stroke:none;stroke-opacity:1"
             id="path93831" />
          <path
             d="m 94.809833,31.196098 q -0.09525,-0.01058 -0.211666,-0.03175 -0.09525,-0.02117 -0.222249,-0.03175 -0.116416,-0.01058 -0.264583,-0.01058 -0.433915,0 -0.783164,0.275166 -0.349249,0.275165 -0.624415,0.761997 v 0.04233 3.735905 h -0.582081 v -3.735905 q 0,-0.423332 -0.105833,-0.730247 -0.105833,-0.306916 -0.317499,-0.529165 l 0.359832,-0.349249 q 0.243416,0.179916 0.380999,0.423332 0.137583,0.232832 0.201083,0.507998 0.275165,-0.486832 0.645581,-0.719664 0.370415,-0.243416 0.89958,-0.243416 0.116417,0 0.232833,0.01058 0.116416,0.01058 0.201083,0.03175 0.105833,0.02117 0.190499,0.04233 z"
             style="font-family:Snippet;-inkscape-font-specification:Snippet;fill:#9bcecd;fill-opacity:1;stroke:none;stroke-opacity:1"
             id="path93833" />
          <path
             d="m 95.338966,35.387084 q 0,-0.148166 0.09525,-0.243415 0.09525,-0.105833 0.243416,-0.105833 0.148167,0 0.243416,0.105833 0.09525,0.09525 0.09525,0.243415 v 0.634998 q 0,0.444499 -0.169333,0.878414 -0.169333,0.444499 -0.571498,0.730248 l -0.359832,-0.349249 q 0.211666,-0.222249 0.317499,-0.529165 0.105833,-0.306916 0.105833,-0.730248 v -0.634998 z"
             style="font-family:Snippet;-inkscape-font-specification:Snippet;fill:#9bcecd;fill-opacity:1;stroke:none;stroke-opacity:1"
             id="path93835" />
        </g>
        <g
           aria-label="Creative"
           id="text64766"
           style="font-size:10.5833px;line-height:1.25;stroke-width:0.264583;fill:#9bcecd;fill-opacity:1;stroke:none;stroke-opacity:1">
          <path
             d="m 86.554332,45.329742 q 0,-0.793748 0.254,-1.471079 0.253999,-0.677331 0.709081,-1.174746 0.455082,-0.507999 1.09008,-0.793748 0.645581,-0.285749 1.418162,-0.285749 1.142996,0 1.714494,0.402166 0.571498,0.402165 0.571498,1.068913 0,0.296332 -0.126999,0.550331 -0.127,0.243416 -0.412749,0.433916 -0.275166,0.179916 -0.709081,0.285749 -0.433915,0.09525 -1.037163,0.09525 h -2.730492 q -0.09525,0.412748 -0.09525,0.888997 z m 3.471323,-3.14324 q -0.899581,0 -1.566329,0.455082 -0.656164,0.455081 -0.99483,1.248829 h 2.561159 q 0.476248,0 0.783164,-0.05292 0.317499,-0.05292 0.497415,-0.158749 0.190499,-0.105833 0.264582,-0.253999 0.07408,-0.15875 0.07408,-0.349249 0,-0.444499 -0.412749,-0.666748 -0.412749,-0.222249 -1.206496,-0.222249 z m -0.423332,6.868561 q -0.783164,0 -1.365246,-0.285749 -0.571498,-0.285749 -0.952497,-0.783164 -0.370415,-0.507998 -0.550332,-1.18533 -0.179916,-0.687914 -0.179916,-1.471078 h 0.645582 q 0,0.698497 0.148166,1.280579 0.158749,0.571498 0.455082,0.984247 0.306915,0.412749 0.751414,0.645581 0.455082,0.232833 1.047747,0.232833 0.328082,0 0.677331,-0.08467 0.359832,-0.09525 0.677331,-0.222249 0.328082,-0.127 0.592665,-0.264582 0.264582,-0.148167 0.433915,-0.254 l 0.275166,0.476249 q -0.15875,0.126999 -0.433915,0.296332 -0.264583,0.15875 -0.613832,0.306916 -0.349249,0.137583 -0.761997,0.232832 -0.402166,0.09525 -0.846664,0.09525 z"
             style="font-family:Snippet;-inkscape-font-specification:Snippet;fill:#9bcecd;fill-opacity:1;stroke:none;stroke-opacity:1"
             id="path93838" />
          <path
             d="m 96.375625,44.207912 q -0.09525,-0.01058 -0.211666,-0.03175 -0.09525,-0.02117 -0.22225,-0.03175 -0.116416,-0.01058 -0.264582,-0.01058 -0.433915,0 -0.783164,0.275166 -0.349249,0.275165 -0.624415,0.761997 v 0.04233 3.735905 h -0.582081 v -3.735905 q 0,-0.423332 -0.105833,-0.730247 -0.105833,-0.306916 -0.317499,-0.529165 l 0.359832,-0.349249 q 0.243416,0.179916 0.380999,0.423332 0.137582,0.232832 0.201082,0.507998 0.275166,-0.486832 0.645582,-0.719664 0.370415,-0.243416 0.89958,-0.243416 0.116416,0 0.232833,0.01058 0.116416,0.01058 0.201082,0.03175 0.105833,0.02117 0.1905,0.04233 z"
             style="font-family:Snippet;-inkscape-font-specification:Snippet;fill:#9bcecd;fill-opacity:1;stroke:none;stroke-opacity:1"
             id="path93840" />
          <path
             d="m 97.6456,46.83257 q 0.09525,0.825498 0.518581,1.24883 0.433916,0.423332 1.259413,0.423332 0.444499,0 0.846666,-0.148167 0.40216,-0.148166 0.80433,-0.359832 l 0.27516,0.444499 q -0.37041,0.253999 -0.86783,0.433915 -0.486828,0.179916 -1.058326,0.179916 -1.195913,0 -1.809744,-0.698498 -0.603248,-0.709081 -0.603248,-2.02141 0,-0.550331 0.158749,-1.047746 0.169333,-0.497416 0.465665,-0.878414 0.306916,-0.380999 0.730248,-0.603248 0.423332,-0.232833 0.941914,-0.232833 0.391582,0 0.740832,0.116416 0.34925,0.105833 0.60325,0.317499 0.26458,0.201083 0.41275,0.507999 0.15874,0.296332 0.15874,0.666748 0,0.465665 -0.20108,0.783164 -0.20108,0.317499 -0.52916,0.507998 -0.3175,0.190499 -0.740834,0.275166 -0.412748,0.08467 -0.857247,0.08467 z m 1.661578,-2.741074 q -0.380999,0 -0.698498,0.190499 -0.306916,0.190499 -0.529165,0.497415 -0.222249,0.306916 -0.349249,0.698498 -0.116416,0.391582 -0.116416,0.804331 h 1.280579 q 0.539748,0 0.878414,-0.09525 0.338667,-0.105833 0.529167,-0.264583 0.1905,-0.158749 0.254,-0.349248 0.0635,-0.201083 0.0635,-0.391582 0,-0.497416 -0.37042,-0.793748 -0.359831,-0.296332 -0.941912,-0.296332 z"
             style="font-family:Snippet;-inkscape-font-specification:Snippet;fill:#9bcecd;fill-opacity:1;stroke:none;stroke-opacity:1"
             id="path93842" />
          <path
             d="m 103.99556,49.055063 q -0.35983,0 -0.67733,-0.09525 -0.30691,-0.09525 -0.53975,-0.285749 -0.22225,-0.190499 -0.34925,-0.476248 -0.12699,-0.285749 -0.12699,-0.656165 0,-0.444498 0.19049,-0.740831 0.20109,-0.296332 0.51859,-0.476248 0.3175,-0.1905 0.70908,-0.264583 0.40216,-0.07408 0.81491,-0.07408 h 1.02658 v -0.592664 q 0,-0.656165 -0.26458,-0.963081 -0.26458,-0.306915 -0.83608,-0.306915 -0.42333,0 -0.85725,0.179916 -0.43391,0.179916 -0.70908,0.391582 l -0.28575,-0.444499 q 0.30692,-0.275166 0.80433,-0.476248 0.508,-0.201083 1.04775,-0.201083 0.889,0 1.28058,0.455082 0.40216,0.444498 0.40216,1.248829 v 2.14841 q 0,0.814914 0.41275,1.259413 l -0.35983,0.349249 q -0.22225,-0.169333 -0.34925,-0.380999 -0.127,-0.222249 -0.20108,-0.465665 -0.20108,0.402165 -0.61383,0.634998 -0.41275,0.232832 -1.03717,0.232832 z m 0,-0.550331 q 0.3175,0 0.59267,-0.08467 0.27516,-0.09525 0.48683,-0.264582 0.22225,-0.169333 0.34925,-0.423332 0.127,-0.253999 0.13758,-0.582082 v -0.624414 h -1.02658 q -0.29633,0 -0.59266,0.04233 -0.28575,0.03175 -0.51858,0.148166 -0.23284,0.105833 -0.381,0.306916 -0.13759,0.201082 -0.13759,0.518581 0,0.529165 0.28575,0.751415 0.28575,0.211666 0.80433,0.211666 z"
             style="font-family:Snippet;-inkscape-font-specification:Snippet;fill:#9bcecd;fill-opacity:1;stroke:none;stroke-opacity:1"
             id="path93844" />
          <path
             d="m 108.09129,43.615247 q 0,-0.423332 -0.10584,-0.730247 -0.10583,-0.306916 -0.3175,-0.529165 l 0.35984,-0.349249 q 0.20108,0.148166 0.3175,0.338665 0.12699,0.179916 0.20108,0.391582 0.0741,0.211666 0.0953,0.433916 0.0318,0.222249 0.0318,0.444498 v 0.0635 h 1.67216 v 0.582081 h -1.67216 v 3.17499 q 0,0.306916 0.0635,0.518582 0.0635,0.201083 0.16933,0.328082 0.10583,0.116417 0.254,0.169333 0.14817,0.05292 0.30692,0.05292 0.19049,0 0.40216,-0.05292 0.21167,-0.0635 0.40217,-0.137583 0.1905,-0.08467 0.33866,-0.169333 0.15875,-0.09525 0.254,-0.148166 l 0.27517,0.444499 q -0.0847,0.0635 -0.27517,0.169333 -0.17992,0.105833 -0.42333,0.211666 -0.24342,0.09525 -0.52917,0.158749 -0.27516,0.07408 -0.55033,0.07408 -0.254,0 -0.48683,-0.08467 -0.22225,-0.07408 -0.40217,-0.253999 -0.16933,-0.1905 -0.27516,-0.497415 -0.10583,-0.317499 -0.10583,-0.783165 z"
             style="font-family:Snippet;-inkscape-font-specification:Snippet;fill:#9bcecd;fill-opacity:1;stroke:none;stroke-opacity:1"
             id="path93846" />
          <path
             d="m 112.23993,43.604664 q 0.20108,0.148166 0.3175,0.338665 0.127,0.179917 0.20108,0.391583 0.0741,0.211666 0.0952,0.433915 0.0318,0.222249 0.0318,0.444498 v 3.735905 h -0.58208 v -3.735905 q 0,-0.423332 -0.10584,-0.730247 -0.10583,-0.306916 -0.31749,-0.529165 z m -0.22225,-1.661578 q 0,-0.211666 0.13758,-0.349249 0.14817,-0.148166 0.34925,-0.148166 0.21167,0 0.34925,0.148166 0.14816,0.137583 0.14816,0.349249 0,0.201083 -0.14816,0.349249 -0.13758,0.137583 -0.34925,0.137583 -0.20108,0 -0.34925,-0.137583 -0.13758,-0.148166 -0.13758,-0.349249 z"
             style="font-family:Snippet;-inkscape-font-specification:Snippet;fill:#9bcecd;fill-opacity:1;stroke:none;stroke-opacity:1"
             id="path93848" />
          <path
             d="m 117.35164,49.033897 q -0.27516,0.0635 -0.49741,0.0635 -0.34925,0 -0.61384,-0.126999 -0.25399,-0.116417 -0.44449,-0.317499 -0.1905,-0.201083 -0.3175,-0.455082 -0.127,-0.264583 -0.20109,-0.529165 l -1.11124,-3.884071 0.5715,-0.15875 1.11124,3.884071 q 0.11642,0.444499 0.35983,0.740831 0.254,0.28575 0.66675,0.338666 l 1.56633,-4.963568 0.55033,0.179917 -1.64041,5.22815 z"
             style="font-family:Snippet;-inkscape-font-specification:Snippet;fill:#9bcecd;fill-opacity:1;stroke:none;stroke-opacity:1"
             id="path93850" />
          <path
             d="m 120.52662,46.83257 q 0.0953,0.825498 0.51858,1.24883 0.43392,0.423332 1.25941,0.423332 0.4445,0 0.84667,-0.148167 0.40216,-0.148166 0.80433,-0.359832 l 0.27516,0.444499 q -0.37041,0.253999 -0.86783,0.433915 -0.48683,0.179916 -1.05833,0.179916 -1.19591,0 -1.80974,-0.698498 -0.60325,-0.709081 -0.60325,-2.02141 0,-0.550331 0.15875,-1.047746 0.16933,-0.497416 0.46566,-0.878414 0.30692,-0.380999 0.73025,-0.603248 0.42333,-0.232833 0.94192,-0.232833 0.39158,0 0.74083,0.116416 0.34925,0.105833 0.60325,0.317499 0.26458,0.201083 0.41274,0.507999 0.15875,0.296332 0.15875,0.666748 0,0.465665 -0.20108,0.783164 -0.20108,0.317499 -0.52916,0.507998 -0.3175,0.190499 -0.74084,0.275166 -0.41274,0.08467 -0.85724,0.08467 z m 1.66158,-2.741074 q -0.381,0 -0.6985,0.190499 -0.30692,0.190499 -0.52917,0.497415 -0.22225,0.306916 -0.34925,0.698498 -0.11641,0.391582 -0.11641,0.804331 h 1.28058 q 0.53975,0 0.87841,-0.09525 0.33867,-0.105833 0.52917,-0.264583 0.1905,-0.158749 0.254,-0.349248 0.0635,-0.201083 0.0635,-0.391582 0,-0.497416 -0.37042,-0.793748 -0.35983,-0.296332 -0.94191,-0.296332 z"
             style="font-family:Snippet;-inkscape-font-specification:Snippet;fill:#9bcecd;fill-opacity:1;stroke:none;stroke-opacity:1"
             id="path93852" />
        </g>
      </g>
    </g>
  </g>
</svg>
